# xmcd
#
# Track frame offsets: 
#        150
#        14111
#        26717
#        43510
#        62466
#        80630
#        95469
#        112465
#        129201
#        147891
#        162350
#
# Disc length: 2484 seconds
#
# Revision: 0
# Processed by: cddbd v1.5.2PL0 Copyright (c) Steve Scherf et al.
# Submitted via: ExactAudioCopyFreeDBPlugin 1.0
#
DISCID=9609b20b
DTITLE=Rebecca Pronsky - Viewfinder
DYEAR=2011
DGENRE=Americana
TTITLE0=Hard Times
TTITLE1=Day Of The Dead
TTITLE2=Give Up Too Easily
TTITLE3=Anything But Good
TTITLE4=Aberdeen
TTITLE5=Mercury News
TTITLE6=The Wheel
TTITLE7=Special
TTITLE8=Fragile World
TTITLE9=Shame
TTITLE10=Good Life
EXTD=
EXTT0=
EXTT1=
EXTT2=
EXTT3=
EXTT4=
EXTT5=
EXTT6=
EXTT7=
EXTT8=
EXTT9=
EXTT10=
PLAYORDER=
